#!OML:ASF H:\Terrain\Patient Classification 1\Walking\steve\steve.ASF
:FULLY-SPECIFIED
:DEGREES
231
root 7.36224 16.4859 17.5072 5.84549 -7.72294 0.904256
lowerback -0.596346 2.95971 -1.41531
upperback -2.90231 3.91599 -0.9243
thorax -2.67513 1.97729 -0.227666
lowerneck -9.34308 1.63171 -2.41357
upperneck 8.93031 2.57356 -0.420436
head 4.63482 1.15765 0.469511
rclavicle -3.28441e-014 9.14409e-015
rhumerus -35.284 -4.34979 -88.1366
rradius 43.8181
rwrist -17.9564
rhand -19.4108 -40.0357
rfingers 7.12502
rthumb 6.90863 -1149.9
lclavicle -3.28441e-014 9.14409e-015
lhumerus -43.8333 24.2591 68.3347
lradius 13.4313
lwrist -19.0638
lhand -18.4555 -10.3813
lfingers 7.12502
lthumb 7.83072 19.4537
rfemur -26.0678 3.58195 20.5263
rtibia 75.4803
rfoot -1.76466 -1.35807
rtoes -20.2165
lfemur -24.1113 0.23032 -26.0992
ltibia 35.6947
lfoot -16.9967 -0.754571
ltoes 3.12593
232
root 7.34991 16.4917 17.7244 5.61401 -7.33446 0.82201
lowerback -0.685176 2.85258 -1.48595
upperback -2.70059 3.78036 -0.75289
thorax -2.43228 1.91189 0.00144838
lowerneck -9.5364 1.5585 -2.77593
upperneck 9.67148 2.51283 -0.187502
head 4.42642 1.12276 0.556427
rclavicle -2.86533e-014 -6.85807e-015
rhumerus -36.3735 -5.06431 -87.8419
rradius 42.2902
rwrist -17.0407
rhand -19.3086 -40.3936
rfingers 7.12502
rthumb 7.00722 -1150.26
lclavicle -2.86533e-014 -6.85807e-015
lhumerus -41.2037 21.8601 71.8764
lradius 14.5125
lwrist -15.5358
lhand -18.8968 -10.0333
lfingers 7.12502
lthumb 7.40472 19.8171
rfemur -27.1744 3.42114 20.8519
rtibia 75.3099
rfoot -3.5761 -1.50019
rtoes -18.5826
lfemur -22.826 -0.11628 -26.0793
ltibia 35.4681
lfoot -17.5225 -0.75661
ltoes 2.85393
233
root 7.34043 16.4967 17.941 5.3733 -6.79887 0.615593
lowerback -0.920803 2.68956 -1.41034
upperback -2.36844 3.57546 -0.539357
thorax -1.96437 1.80737 0.204654
lowerneck -9.44209 1.5627 -2.98403
upperneck 9.56781 2.53106 -0.0828572
head 4.37474 1.13203 0.621591
rclavicle -5.03939e-014 3.47873e-015
rhumerus -37.03 -6.11776 -87.4068
rradius 40.2959
rwrist -15.7822
rhand -19.886 -40.4104
rfingers 7.12502
rthumb 6.44983 -1150.29
lclavicle -5.03939e-014 3.47873e-015
lhumerus -38.7492 19.4698 75.0534
lradius 15.9519
lwrist -11.9008
lhand -18.9339 -10.083
lfingers 7.12502
lthumb 7.36891 19.7687
rfemur -28.1973 3.26582 21.305
rtibia 74.9473
rfoot -5.39874 -1.76109
rtoes -14.805
lfemur -21.5144 -0.391982 -25.9451
ltibia 35.2599
lfoot -18.1204 -1.05332
ltoes 2.11232
234
root 7.334 16.503 18.1573 5.35528 -6.34994 0.715612
lowerback -0.981773 2.52523 -1.67742
upperback -2.47189 3.35762 -0.400803
thorax -2.05734 1.70595 0.496572
lowerneck -9.1249 1.56496 -3.06674
upperneck 9.75117 2.54077 -0.115205
head 4.37786 1.13021 0.623825
rclavicle 2.62771e-015 1.2275e-014
rhumerus -38.1719 -6.94404 -86.9031
rradius 38.0443
rwrist -14.974
rhand -21.7577 -41.5958
rfingers 7.12502
rthumb 4.64276 -1151.52
lclavicle 2.62771e-015 1.2275e-014
lhumerus -37.3655 16.9654 77.6311
lradius 17.8906
lwrist -7.98394
lhand -19.2274 -10.7122
lfingers 7.12502
lthumb 7.08563 19.1492
rfemur -29.4947 3.2321 21.2995
rtibia 74.4384
rfoot -6.98692 -1.55011
rtoes -9.55353
lfemur -20.4892 -0.479449 -26.1689
ltibia 35.0639
lfoot -18.7546 -1.33748
ltoes 0.867455
235
root 7.32934 16.504 18.3727 5.35853 -6.0688 1.03649
lowerback -0.902578 2.42079 -2.12007
upperback -2.69188 3.21247 -0.368363
thorax -2.35225 1.64613 0.767024
lowerneck -9.20296 1.52857 -3.26749
upperneck 10.4709 2.50947 0.0925002
head 4.60734 1.10947 0.724719
rclavicle -1.64881e-014 -2.5345e-015
rhumerus -39.5917 -7.82012 -86.2475
rradius 35.9075
rwrist -14.1082
rhand -23.4394 -41.9869
rfingers 7.12502
rthumb 3.01871 -1151.95
lclavicle -1.64881e-014 -2.5345e-015
lhumerus -36.123 14.527 79.7639
lradius 19.6491
lwrist -4.16813
lhand -19.433 -10.9644
lfingers 7.12502
lthumb 6.88714 18.9035
rfemur -30.8583 3.24121 20.9693
rtibia 73.7123
rfoot -8.10161 -0.91968
rtoes -7.99869
lfemur -19.5535 -0.54732 -26.6297
ltibia 34.8046
lfoot -19.2861 -1.47291
ltoes 0.870575
236
root 7.31999 16.4977 18.579 5.33878 -5.77841 1.13933
lowerback -0.829925 2.35425 -2.33273
upperback -2.70175 3.12059 -0.360933
thorax -2.41276 1.60546 0.890629
lowerneck -9.1706 1.48122 -3.02958
upperneck 10.5602 2.43035 -0.0559511
head 4.63554 1.06968 0.635735
rclavicle 1.98705e-014 1.0958e-014
rhumerus -40.4975 -9.19605 -85.4639
rradius 33.6272
rwrist -12.8225
rhand -22.1942 -39.291
rfingers 7.12502
rthumb 4.22124 -1149.23
lclavicle 1.98705e-014 1.0958e-014
lhumerus -34.4759 11.7876 81.7699
lradius 21.3355
lwrist -0.149621
lhand -19.9207 -11.1455
lfingers 7.12502
lthumb 6.41636 18.7373
rfemur -32.2064 3.23941 20.9953
rtibia 72.7701
rfoot -9.25869 -0.626166
rtoes -10.1686
lfemur -18.6198 -0.580896 -26.8011
ltibia 34.4187
lfoot -19.6065 -1.76075
ltoes 2.24422
